<?xml version="1.0" encoding="utf-8"?>
<!-- Generator: Adobe Illustrator 25.3.1, SVG Export Plug-In . SVG Version: 6.00 Build 0)  -->
<svg version="1.1" xmlns="http://www.w3.org/2000/svg" xmlns:xlink="http://www.w3.org/1999/xlink" x="0px" y="0px"
	 viewBox="0 0 971.1 200" style="enable-background:new 0 0 971.1 200;" xml:space="preserve">
<style type="text/css">
	.st0{enable-background:new    ;}
	.st1{fill:#2863C5;}
	.st2{display:none;}
	.st3{display:inline;enable-background:new    ;}
</style>
<g id="Color_Background">
</g>
<g id="Logos">
	<g id="smartcredit-2_1_">
		<g class="st0">
			<path class="st1" d="M85,104.2c-3.5-4.4-8.2-6.6-13.9-6.6c-2,0-4,0.5-5.9,1.4c-1.9,1-2.9,2.6-2.9,5c0,1.9,1,3.3,3,4.2
				c2,0.9,4.5,1.7,7.5,2.4c3,0.7,6.3,1.4,9.8,2.2c3.5,0.8,6.7,2.1,9.8,3.8c3,1.7,5.6,4,7.5,7c2,2.9,3,6.9,3,11.8
				c0,5-1.1,9.2-3.3,12.4c-2.2,3.3-5,5.9-8.4,7.8c-3.4,2-7.3,3.4-11.5,4.2c-4.3,0.8-8.5,1.2-12.7,1.2c-5.4,0-10.9-0.8-16.5-2.3
				c-5.6-1.5-10.2-4.3-14.1-8.2l14.6-16.2c2.2,2.8,4.7,4.9,7.4,6.3c2.7,1.4,5.9,2.2,9.5,2.2c2.8,0,5.3-0.4,7.5-1.2
				c2.2-0.8,3.4-2.3,3.4-4.4c0-2-1-3.5-3-4.6c-2-1-4.5-1.9-7.5-2.6c-3-0.7-6.3-1.4-9.8-2.2c-3.5-0.8-6.7-2-9.8-3.6
				c-3-1.6-5.6-3.9-7.5-6.8c-2-2.9-3-6.9-3-11.8c0-4.6,0.9-8.5,2.8-11.9c1.9-3.3,4.3-6,7.4-8.2c3-2.1,6.5-3.7,10.5-4.7
				c3.9-1,8-1.5,12-1.5c5.1,0,10.3,0.7,15.5,2.2c5.2,1.5,9.7,4.2,13.3,8L85,104.2z"/>
			<path class="st1" d="M113.7,81.3h23.1v10.6h0.3c0.7-1.5,1.8-3,3.2-4.5c1.4-1.5,3-2.8,5-4c1.9-1.2,4.1-2.1,6.6-2.9
				c2.5-0.7,5.1-1.1,8-1.1c5.4,0,10.3,1.1,14.5,3.4c4.2,2.2,7.4,5.8,9.5,10.6c2.8-5,6.1-8.6,10.1-10.7c3.9-2.1,8.8-3.2,14.6-3.2
				c5.2,0,9.6,0.9,13.2,2.6c3.6,1.8,6.4,4.2,8.5,7.2c2.1,3,3.6,6.6,4.5,10.7c0.9,4.1,1.4,8.5,1.4,13.2v46h-24v-45.3
				c0-3.6-0.8-6.8-2.3-9.4c-1.5-2.6-4.3-3.9-8.2-3.9c-2.8,0-5.1,0.5-7,1.4c-1.9,0.9-3.4,2.2-4.5,3.8c-1.1,1.6-1.9,3.5-2.4,5.6
				c-0.5,2.1-0.7,4.4-0.7,6.7v41.2h-24V118c0-1.4-0.1-3.1-0.2-5.1c-0.1-2-0.5-3.9-1.1-5.8c-0.6-1.8-1.7-3.4-3.1-4.6
				c-1.4-1.3-3.5-1.9-6.3-1.9c-3.1,0-5.6,0.6-7.5,1.7s-3.4,2.6-4.4,4.5c-1,1.9-1.7,4-2,6.3c-0.3,2.3-0.5,4.8-0.5,7.4v38.8h-24V81.3z
				"/>
		</g>
		<g class="st0">
			<path class="st1" d="M300.1,149.4h-0.3c-2.7,4.2-6.2,7.2-10.6,9c-4.4,1.8-9.1,2.7-14,2.7c-3.6,0-7.1-0.5-10.5-1.5
				c-3.4-1-6.3-2.5-8.9-4.6c-2.6-2-4.6-4.5-6.1-7.5c-1.5-3-2.2-6.5-2.2-10.4c0-4.5,0.8-8.3,2.5-11.4c1.7-3.1,3.9-5.7,6.7-7.7
				c2.8-2,6.1-3.6,9.7-4.7c3.6-1.1,7.4-1.9,11.3-2.5c3.9-0.5,7.8-0.9,11.7-1c3.9-0.1,7.5-0.2,10.8-0.2c0-4.3-1.5-7.7-4.6-10.2
				c-3-2.5-6.6-3.8-10.8-3.8c-4,0-7.6,0.8-10.8,2.5c-3.3,1.7-6.2,3.9-8.7,6.8l-12.8-13.1c4.5-4.2,9.7-7.3,15.7-9.4
				c6-2.1,12.2-3.1,18.6-3.1c7,0,12.8,0.9,17.4,2.6c4.5,1.8,8.2,4.4,10.9,7.8c2.7,3.4,4.6,7.6,5.7,12.6c1.1,5,1.6,10.7,1.6,17.2
				v39.6h-22.1V149.4z M294.1,125.1c-1.8,0-4.1,0.1-6.8,0.2c-2.7,0.2-5.3,0.6-7.8,1.4c-2.5,0.7-4.6,1.9-6.4,3.4
				c-1.8,1.5-2.6,3.6-2.6,6.2c0,2.9,1.2,5,3.7,6.4c2.5,1.4,5,2.1,7.7,2.1c2.3,0,4.6-0.3,6.8-1c2.2-0.6,4.1-1.5,5.8-2.7
				c1.7-1.2,3.1-2.7,4.1-4.5c1-1.8,1.5-4,1.5-6.4v-5.1H294.1z"/>
		</g>
		<g class="st0">
			<path class="st1" d="M336.4,81.3h24v12.5h0.3c2.6-4.8,5.6-8.4,9.1-10.8c3.5-2.4,8-3.6,13.3-3.6c1.4,0,2.8,0.1,4.2,0.2
				c1.4,0.1,2.7,0.3,3.8,0.6v21.9c-1.7-0.5-3.4-0.9-5-1.2c-1.7-0.3-3.4-0.4-5.2-0.4c-4.6,0-8.2,0.6-10.9,1.9
				c-2.7,1.3-4.7,3.1-6.2,5.4c-1.4,2.3-2.4,5-2.8,8.2c-0.4,3.2-0.6,6.7-0.6,10.6v32.5h-24V81.3z"/>
		</g>
		<g class="st0">
			<path class="st1" d="M460.2,100.6h-21.1v25.9c0,2.1,0.1,4.1,0.3,5.8c0.2,1.8,0.7,3.3,1.4,4.6c0.7,1.3,1.9,2.3,3.4,3
				c1.5,0.7,3.6,1,6.2,1c1.3,0,3-0.1,5-0.4c2.1-0.3,3.7-0.9,4.7-1.8v20c-2.7,1-5.4,1.6-8.3,1.9c-2.9,0.3-5.7,0.5-8.5,0.5
				c-4.1,0-7.8-0.4-11.2-1.3c-3.4-0.9-6.4-2.2-9-4.1c-2.6-1.9-4.6-4.3-6-7.3c-1.4-3-2.2-6.6-2.2-10.9v-37h-15.4V81.3H415V58.3h24
				v23.1h21.1V100.6z"/>
		</g>
		<g class="st0">
			<path class="st1" d="M522.7,106.5c-1.2-1.7-2.8-3.1-5-4.2c-2.1-1.1-4.4-1.7-6.9-1.7c-6.1,0-10.8,1.8-14.2,5.4
				c-3.4,3.6-5,8.4-5,14.3c0,5.9,1.7,10.6,5,14.3c3.4,3.6,8.1,5.4,14.2,5.4c2.7,0,5-0.6,6.9-1.8c1.9-1.2,3.6-2.6,5-4.2l15.9,16.7
				c-3.7,3.8-8.1,6.5-13.2,8.1c-5.1,1.5-9.9,2.3-14.5,2.3c-6,0-11.6-1-16.9-2.9c-5.3-1.9-9.9-4.7-13.8-8.2c-3.9-3.6-7-7.9-9.2-12.9
				c-2.2-5-3.4-10.6-3.4-16.8c0-6.2,1.1-11.8,3.4-16.8c2.2-5,5.3-9.3,9.2-12.9c3.9-3.6,8.5-6.3,13.8-8.2c5.3-1.9,10.9-2.9,16.9-2.9
				c4.6,0,9.4,0.8,14.5,2.3c5.1,1.5,9.5,4.2,13.2,8.1L522.7,106.5z"/>
		</g>
		<g class="st0">
			<path class="st1" d="M547.2,81.3h24v12.5h0.3c2.6-4.8,5.6-8.4,9.1-10.8c3.5-2.4,8-3.6,13.3-3.6c1.4,0,2.8,0.1,4.2,0.2
				c1.4,0.1,2.7,0.3,3.8,0.6v21.9c-1.7-0.5-3.4-0.9-5-1.2c-1.7-0.3-3.4-0.4-5.2-0.4c-4.6,0-8.2,0.6-10.9,1.9
				c-2.7,1.3-4.7,3.1-6.2,5.4c-1.4,2.3-2.4,5-2.8,8.2c-0.4,3.2-0.6,6.7-0.6,10.6v32.5h-24V81.3z"/>
		</g>
		<g class="st0">
			<path class="st1" d="M682.3,145.7c-3.8,4.9-8.7,8.7-14.6,11.4c-5.9,2.7-12,4-18.3,4c-6,0-11.6-1-16.9-2.9
				c-5.3-1.9-9.9-4.7-13.8-8.2c-3.9-3.6-7-7.9-9.2-12.9c-2.2-5-3.4-10.6-3.4-16.8c0-6.2,1.1-11.8,3.4-16.8c2.2-5,5.3-9.3,9.2-12.9
				c3.9-3.6,8.5-6.3,13.8-8.2c5.3-1.9,10.9-2.9,16.9-2.9c5.6,0,10.6,1,15.1,2.9c4.5,1.9,8.4,4.7,11.5,8.2c3.1,3.6,5.6,7.9,7.3,12.9
				c1.7,5,2.6,10.6,2.6,16.8v7.5h-55.7c1,4.6,3,8.2,6.2,11c3.2,2.7,7.2,4.1,11.9,4.1c4,0,7.3-0.9,10-2.6c2.7-1.8,5.1-4,7.1-6.8
				L682.3,145.7z M662,111.5c0.1-4.1-1.2-7.5-4-10.4c-2.8-2.9-6.4-4.3-10.7-4.3c-2.7,0-5,0.4-7,1.3c-2,0.9-3.8,1.9-5.2,3.3
				c-1.4,1.3-2.6,2.9-3.4,4.6c-0.8,1.8-1.3,3.6-1.4,5.5H662z"/>
			<path class="st1" d="M780.8,159.2h-22.1v-10.2h-0.3c-1,1.4-2.2,2.8-3.8,4.2s-3.4,2.7-5.4,3.9c-2.1,1.2-4.4,2.1-6.9,2.9
				c-2.5,0.7-5.1,1.1-7.8,1.1c-5.8,0-11-1-15.7-3c-4.7-2-8.7-4.7-12.1-8.3c-3.4-3.6-6-7.8-7.8-12.7c-1.8-4.9-2.7-10.3-2.7-16.2
				c0-5.4,0.8-10.6,2.5-15.6c1.7-5,4-9.4,7-13.2c3-3.8,6.8-6.9,11.1-9.2c4.4-2.3,9.3-3.4,14.9-3.4c5,0,9.7,0.8,14,2.3
				c4.3,1.5,7.9,4.2,10.7,7.9h0.3V38.1h24V159.2z M758.7,120.3c0-5.9-1.7-10.6-5-14.3c-3.4-3.6-8.1-5.4-14.2-5.4s-10.8,1.8-14.2,5.4
				c-3.4,3.6-5,8.4-5,14.3c0,5.9,1.7,10.6,5,14.3c3.4,3.6,8.1,5.4,14.2,5.4s10.8-1.8,14.2-5.4C757,130.9,758.7,126.1,758.7,120.3z"
				/>
		</g>
		<g class="st0">
			<path class="st1" d="M796.7,56.8c0-3.8,1.4-7.1,4.1-9.9c2.7-2.7,6-4.1,9.8-4.1c3.8,0,7.1,1.4,9.9,4.1c2.7,2.7,4.1,6,4.1,9.9
				s-1.4,7.1-4.1,9.8c-2.7,2.7-6,4.1-9.9,4.1c-3.8,0-7.1-1.4-9.8-4.1C798,64,796.7,60.7,796.7,56.8z M798.6,81.3h24v77.8h-24V81.3z"
				/>
		</g>
		<g class="st0">
			<path class="st1" d="M894.5,100.6h-21.1v25.9c0,2.1,0.1,4.1,0.3,5.8c0.2,1.8,0.7,3.3,1.4,4.6c0.7,1.3,1.9,2.3,3.4,3s3.6,1,6.2,1
				c1.3,0,3-0.1,5-0.4c2.1-0.3,3.7-0.9,4.7-1.8v20c-2.7,1-5.4,1.6-8.3,1.9c-2.9,0.3-5.7,0.5-8.5,0.5c-4.1,0-7.8-0.4-11.2-1.3
				s-6.4-2.2-9-4.1c-2.6-1.9-4.6-4.3-6-7.3c-1.4-3-2.2-6.6-2.2-10.9v-37H834V81.3h15.4V58.3h24v23.1h21.1V100.6z"/>
		</g>
		<g class="st0">
			<path class="st1" d="M897.1,56.3c0-2.5,0.5-4.9,1.5-7.1c1-2.2,2.3-4.2,3.9-5.8c1.7-1.7,3.6-3,5.8-3.9c2.2-1,4.6-1.5,7.1-1.5
				c2.5,0,4.9,0.5,7.1,1.5c2.2,1,4.2,2.3,5.8,3.9c1.7,1.7,3,3.6,3.9,5.8c1,2.2,1.5,4.6,1.5,7.1c0,2.5-0.5,4.9-1.5,7.1
				c-1,2.2-2.3,4.2-3.9,5.8c-1.7,1.7-3.6,3-5.8,3.9s-4.6,1.5-7.1,1.5c-2.5,0-4.9-0.5-7.1-1.5c-2.2-1-4.2-2.3-5.8-3.9
				c-1.7-1.7-3-3.6-3.9-5.8C897.6,61.2,897.1,58.9,897.1,56.3z M902.2,56.3c0,1.9,0.3,3.7,1,5.4c0.7,1.7,1.6,3.2,2.9,4.4
				c1.2,1.2,2.6,2.2,4.2,3s3.3,1.1,5.2,1.1c1.8,0,3.6-0.4,5.2-1.1s3-1.7,4.2-3c1.2-1.2,2.2-2.7,2.9-4.4c0.7-1.7,1-3.5,1-5.4
				c0-1.9-0.3-3.7-1-5.4c-0.7-1.7-1.6-3.2-2.9-4.4c-1.2-1.2-2.6-2.2-4.2-3c-1.6-0.7-3.3-1.1-5.2-1.1c-1.8,0-3.6,0.4-5.2,1.1
				c-1.6,0.7-3,1.7-4.2,3c-1.2,1.2-2.2,2.7-2.9,4.4C902.5,52.6,902.2,54.4,902.2,56.3z M908.4,46.5h6.8c0.5,0,1.2,0,2.2,0.1
				c0.9,0.1,1.8,0.3,2.7,0.7s1.7,1,2.3,1.8c0.7,0.8,1,2,1,3.6c0,1-0.1,1.8-0.4,2.4c-0.3,0.6-0.6,1.2-1,1.6c-0.4,0.4-0.9,0.7-1.4,0.9
				c-0.5,0.2-1.1,0.4-1.6,0.4l4.9,7.6h-5.2l-4.4-7.4h-0.8v7.4h-5V46.5z M913.4,54.5h2c0.3,0,0.6,0,1,0s0.7-0.1,1-0.2
				c0.3-0.1,0.5-0.3,0.7-0.6c0.2-0.3,0.3-0.7,0.3-1.2c0-0.5-0.1-0.9-0.3-1.2c-0.2-0.3-0.4-0.5-0.7-0.6c-0.3-0.1-0.6-0.2-1-0.2
				s-0.7,0-1,0h-2V54.5z"/>
		</g>
	</g>
</g>
<g id="Guides" class="st2">
	<g class="st3">
		<path d="M493.4,178.5c0-2.5,0.5-4.9,1.5-7.1c1-2.2,2.3-4.2,3.9-5.8c1.7-1.7,3.6-3,5.8-3.9c2.2-1,4.6-1.5,7.1-1.5
			c2.5,0,4.9,0.5,7.1,1.5c2.2,1,4.2,2.3,5.8,3.9c1.7,1.7,3,3.6,3.9,5.8c1,2.2,1.5,4.6,1.5,7.1c0,2.5-0.5,4.9-1.5,7.1
			c-1,2.2-2.3,4.2-3.9,5.8c-1.7,1.7-3.6,3-5.8,3.9c-2.2,1-4.6,1.5-7.1,1.5c-2.5,0-4.9-0.5-7.1-1.5s-4.2-2.3-5.8-3.9
			c-1.7-1.7-3-3.6-3.9-5.8C493.9,183.4,493.4,181,493.4,178.5z M498.4,178.5c0,1.9,0.3,3.7,1,5.4c0.7,1.7,1.6,3.2,2.9,4.4
			c1.2,1.2,2.6,2.2,4.2,3c1.6,0.7,3.3,1.1,5.2,1.1c1.8,0,3.6-0.4,5.2-1.1c1.6-0.7,3-1.7,4.2-3c1.2-1.2,2.2-2.7,2.9-4.4
			c0.7-1.7,1-3.5,1-5.4s-0.3-3.7-1-5.4c-0.7-1.7-1.6-3.2-2.9-4.4c-1.2-1.2-2.6-2.2-4.2-3c-1.6-0.7-3.3-1.1-5.2-1.1
			c-1.8,0-3.6,0.4-5.2,1.1c-1.6,0.7-3,1.7-4.2,3c-1.2,1.2-2.2,2.7-2.9,4.4C498.8,174.8,498.4,176.6,498.4,178.5z M504.7,168.7h6.8
			c0.5,0,1.2,0,2.2,0.1c0.9,0.1,1.8,0.3,2.7,0.7c0.9,0.4,1.7,1,2.3,1.8c0.7,0.8,1,2,1,3.6c0,1-0.1,1.8-0.4,2.4
			c-0.3,0.6-0.6,1.2-1,1.6c-0.4,0.4-0.9,0.7-1.4,0.9c-0.5,0.2-1.1,0.4-1.6,0.4l4.9,7.6h-5.2l-4.4-7.4h-0.8v7.4h-5V168.7z
			 M509.7,176.7h2c0.3,0,0.6,0,1,0c0.3,0,0.7-0.1,1-0.2c0.3-0.1,0.5-0.3,0.7-0.6s0.3-0.7,0.3-1.2c0-0.5-0.1-0.9-0.3-1.2
			s-0.4-0.5-0.7-0.6c-0.3-0.1-0.6-0.2-1-0.2c-0.3,0-0.7,0-1,0h-2V176.7z"/>
	</g>
	<g class="st3">
		<path d="M-0.3,109.7c0-2.5,0.5-4.9,1.5-7.1s2.3-4.2,3.9-5.8c1.7-1.7,3.6-3,5.8-3.9s4.6-1.5,7.1-1.5c2.5,0,4.9,0.5,7.1,1.5
			s4.2,2.3,5.8,3.9c1.7,1.7,3,3.6,3.9,5.8s1.5,4.6,1.5,7.1c0,2.5-0.5,4.9-1.5,7.1c-1,2.2-2.3,4.2-3.9,5.8c-1.7,1.7-3.6,3-5.8,3.9
			S20.5,128,18,128c-2.5,0-4.9-0.5-7.1-1.5s-4.2-2.3-5.8-3.9c-1.7-1.7-3-3.6-3.9-5.8C0.2,114.6-0.3,112.2-0.3,109.7z M4.7,109.7
			c0,1.9,0.3,3.7,1,5.4s1.6,3.2,2.9,4.4c1.2,1.2,2.6,2.2,4.2,3s3.3,1.1,5.2,1.1c1.8,0,3.6-0.4,5.2-1.1s3-1.7,4.2-3
			c1.2-1.2,2.2-2.7,2.9-4.4s1-3.5,1-5.4c0-1.9-0.3-3.7-1-5.4s-1.6-3.2-2.9-4.4c-1.2-1.2-2.6-2.2-4.2-3s-3.3-1.1-5.2-1.1
			c-1.8,0-3.6,0.4-5.2,1.1s-3,1.7-4.2,3c-1.2,1.2-2.2,2.7-2.9,4.4S4.7,107.8,4.7,109.7z M10.9,99.9h6.8c0.5,0,1.2,0,2.2,0.1
			c0.9,0.1,1.8,0.3,2.7,0.7c0.9,0.4,1.7,1,2.3,1.8c0.7,0.8,1,2,1,3.6c0,1-0.1,1.8-0.4,2.4c-0.3,0.6-0.6,1.2-1,1.6
			c-0.4,0.4-0.9,0.7-1.4,0.9c-0.5,0.2-1.1,0.4-1.6,0.4l4.9,7.6h-5.2l-4.4-7.4H16v7.4h-5V99.9z M15.9,107.9h2c0.3,0,0.6,0,1,0
			c0.3,0,0.7-0.1,1-0.2c0.3-0.1,0.5-0.3,0.7-0.6c0.2-0.3,0.3-0.7,0.3-1.2s-0.1-0.9-0.3-1.2c-0.2-0.3-0.4-0.5-0.7-0.6
			c-0.3-0.1-0.6-0.2-1-0.2c-0.3,0-0.7,0-1,0h-2V107.9z"/>
	</g>
	<g class="st3">
		<path d="M757,19.7c0-2.5,0.5-4.9,1.5-7.1c1-2.2,2.3-4.2,3.9-5.8c1.7-1.7,3.6-3,5.8-3.9c2.2-1,4.6-1.5,7.1-1.5
			c2.5,0,4.9,0.5,7.1,1.5s4.2,2.3,5.8,3.9c1.7,1.7,3,3.6,3.9,5.8c1,2.2,1.5,4.6,1.5,7.1c0,2.5-0.5,4.9-1.5,7.1
			c-1,2.2-2.3,4.2-3.9,5.8c-1.7,1.7-3.6,3-5.8,3.9s-4.6,1.5-7.1,1.5c-2.5,0-4.9-0.5-7.1-1.5c-2.2-1-4.2-2.3-5.8-3.9
			c-1.7-1.7-3-3.6-3.9-5.8C757.5,24.6,757,22.2,757,19.7z M762,19.7c0,1.9,0.3,3.7,1,5.4c0.7,1.7,1.6,3.2,2.9,4.4
			c1.2,1.2,2.6,2.2,4.2,3c1.6,0.7,3.3,1.1,5.2,1.1c1.8,0,3.6-0.4,5.2-1.1c1.6-0.7,3-1.7,4.2-3c1.2-1.2,2.2-2.7,2.9-4.4s1-3.5,1-5.4
			c0-1.9-0.3-3.7-1-5.4s-1.6-3.2-2.9-4.4c-1.2-1.2-2.6-2.2-4.2-3s-3.3-1.1-5.2-1.1c-1.8,0-3.6,0.4-5.2,1.1s-3,1.7-4.2,3
			c-1.2,1.2-2.2,2.7-2.9,4.4C762.3,16,762,17.8,762,19.7z M768.3,9.9h6.8c0.5,0,1.2,0,2.2,0.1c0.9,0.1,1.8,0.3,2.7,0.7
			c0.9,0.4,1.7,1,2.3,1.8c0.7,0.8,1,2,1,3.6c0,1-0.1,1.8-0.4,2.4c-0.3,0.6-0.6,1.2-1,1.6c-0.4,0.4-0.9,0.7-1.4,0.9
			c-0.5,0.2-1.1,0.4-1.6,0.4l4.9,7.6h-5.2l-4.4-7.4h-0.8v7.4h-5V9.9z M773.2,17.9h2c0.3,0,0.6,0,1,0c0.3,0,0.7-0.1,1-0.2
			c0.3-0.1,0.5-0.3,0.7-0.6c0.2-0.3,0.3-0.7,0.3-1.2c0-0.5-0.1-0.9-0.3-1.2c-0.2-0.3-0.4-0.5-0.7-0.6c-0.3-0.1-0.6-0.2-1-0.2
			c-0.3,0-0.7,0-1,0h-2V17.9z"/>
	</g>
	<g class="st3">
		<path d="M934.7,54.5c0-2.5,0.5-4.9,1.5-7.1c1-2.2,2.3-4.2,3.9-5.8c1.7-1.7,3.6-3,5.8-3.9c2.2-1,4.6-1.5,7.1-1.5
			c2.5,0,4.9,0.5,7.1,1.5s4.2,2.3,5.8,3.9c1.7,1.7,3,3.6,3.9,5.8c1,2.2,1.5,4.6,1.5,7.1c0,2.5-0.5,4.9-1.5,7.1
			c-1,2.2-2.3,4.2-3.9,5.8c-1.7,1.7-3.6,3-5.8,3.9s-4.6,1.5-7.1,1.5c-2.5,0-4.9-0.5-7.1-1.5c-2.2-1-4.2-2.3-5.8-3.9
			c-1.7-1.7-3-3.6-3.9-5.8C935.2,59.4,934.7,57,934.7,54.5z M939.7,54.5c0,1.9,0.3,3.7,1,5.4c0.7,1.7,1.6,3.2,2.9,4.4
			c1.2,1.2,2.6,2.2,4.2,3s3.3,1.1,5.2,1.1c1.8,0,3.6-0.4,5.2-1.1s3-1.7,4.2-3c1.2-1.2,2.2-2.7,2.9-4.4c0.7-1.7,1-3.5,1-5.4
			c0-1.9-0.3-3.7-1-5.4c-0.7-1.7-1.6-3.2-2.9-4.4s-2.6-2.2-4.2-3c-1.6-0.7-3.3-1.1-5.2-1.1c-1.8,0-3.6,0.4-5.2,1.1
			c-1.6,0.7-3,1.7-4.2,3c-1.2,1.2-2.2,2.7-2.9,4.4C940.1,50.8,939.7,52.6,939.7,54.5z M946,44.7h6.8c0.5,0,1.2,0,2.2,0.1
			c0.9,0.1,1.8,0.3,2.7,0.7s1.7,1,2.3,1.8c0.7,0.8,1,2,1,3.6c0,1-0.1,1.8-0.4,2.4c-0.3,0.6-0.6,1.2-1,1.6c-0.4,0.4-0.9,0.7-1.4,0.9
			c-0.5,0.2-1.1,0.4-1.6,0.4l4.9,7.6h-5.2l-4.4-7.4H951v7.4h-5V44.7z M951,52.7h2c0.3,0,0.6,0,1,0c0.3,0,0.7-0.1,1-0.2
			c0.3-0.1,0.5-0.3,0.7-0.6c0.2-0.3,0.3-0.7,0.3-1.2s-0.1-0.9-0.3-1.2c-0.2-0.3-0.4-0.5-0.7-0.6c-0.3-0.1-0.6-0.2-1-0.2
			c-0.3,0-0.7,0-1,0h-2V52.7z"/>
	</g>
</g>
</svg>
